<svg width="24" height="24" viewBox="0 0 24 24" fill="none" xmlns="http://www.w3.org/2000/svg">
<g clip-path="url(#clip0_237_4091)">
<g clip-path="url(#clip1_237_4091)">
<g clip-path="url(#clip2_237_4091)">
<path d="M24 12C24 5.37258 18.6274 0 12 0C5.37258 0 0 5.37258 0 12C0 18.6274 5.37258 24 12 24C18.6274 24 24 18.6274 24 12Z" fill="#4753BE"/>
<path d="M11.9968 3.99902L11.8916 4.35641V14.7274L11.9968 14.8324L16.8108 11.9868L11.9968 3.99902Z" fill="white"/>
<path d="M11.9948 3.99902L7.18066 11.9868L11.9948 14.8324V9.79867V3.99902Z" fill="white"/>
<path d="M11.9948 16.3985L11.9355 16.4706V20.165L11.9948 20.3381L16.8119 13.5542L11.9948 16.3985Z" fill="white"/>
<path d="M11.9948 20.3381V16.3985L7.18066 13.5542L11.9948 20.3381Z" fill="white"/>
<path d="M11.9941 14.832L16.8083 11.9865L11.9941 9.79834V14.832Z" fill="white"/>
<path d="M7.18066 11.9865L11.9947 14.8321V9.79834L7.18066 11.9865Z" fill="white"/>
</g>
</g>
</g>
<defs>
<clipPath id="clip0_237_4091">
<rect width="24" height="24" fill="white"/>
</clipPath>
<clipPath id="clip1_237_4091">
<rect width="24" height="24" fill="white"/>
</clipPath>
<clipPath id="clip2_237_4091">
<rect width="24" height="24" fill="white"/>
</clipPath>
</defs>
</svg>
